<svg viewBox="0 0 600 480" xmlns="http://www.w3.org/2000/svg" font-family="Arial, sans-serif">
  <rect width="600" height="480" fill="#f8f9fa"/>
  <text x="300" y="22" text-anchor="middle" font-size="13" font-weight="bold" fill="#1e293b">DENSITY ALTITUDE CHART</text>
  <text x="300" y="38" text-anchor="middle" font-size="10" fill="#475569">Figure 1 · Diagonal lines = density altitude (ft)</text>

  <rect x="90" y="55" width="470" height="345" fill="white" stroke="#cbd5e1" stroke-width="0.5"/>

  <line x1="90" y1="400" x2="560" y2="400" stroke="#94a3b8" stroke-width="0.5" />
  <line x1="90" y1="350.71" x2="560" y2="350.71" stroke="#e2e8f0" stroke-width="0.5" stroke-dasharray="3,3"/>
  <line x1="90" y1="301.43" x2="560" y2="301.43" stroke="#94a3b8" stroke-width="0.5" />
  <line x1="90" y1="252.14" x2="560" y2="252.14" stroke="#e2e8f0" stroke-width="0.5" stroke-dasharray="3,3"/>
  <line x1="90" y1="202.86" x2="560" y2="202.86" stroke="#94a3b8" stroke-width="0.5" />
  <line x1="90" y1="153.57" x2="560" y2="153.57" stroke="#e2e8f0" stroke-width="0.5" stroke-dasharray="3,3"/>
  <line x1="90" y1="104.29" x2="560" y2="104.29" stroke="#94a3b8" stroke-width="0.5" />
  <line x1="90" y1="55" x2="560" y2="55" stroke="#e2e8f0" stroke-width="0.5" stroke-dasharray="3,3"/>
  <line x1="90" y1="55" x2="90" y2="400" stroke="#94a3b8" stroke-width="0.5" />
  <line x1="157.14" y1="55" x2="157.14" y2="400" stroke="#e2e8f0" stroke-width="0.5" stroke-dasharray="3,3"/>
  <line x1="224.29" y1="55" x2="224.29" y2="400" stroke="#94a3b8" stroke-width="0.5" />
  <line x1="291.43" y1="55" x2="291.43" y2="400" stroke="#e2e8f0" stroke-width="0.5" stroke-dasharray="3,3"/>
  <line x1="358.57" y1="55" x2="358.57" y2="400" stroke="#94a3b8" stroke-width="0.5" />
  <line x1="425.71" y1="55" x2="425.71" y2="400" stroke="#e2e8f0" stroke-width="0.5" stroke-dasharray="3,3"/>
  <line x1="492.86" y1="55" x2="492.86" y2="400" stroke="#94a3b8" stroke-width="0.5" />
  <line x1="560" y1="55" x2="560" y2="400" stroke="#e2e8f0" stroke-width="0.5" stroke-dasharray="3,3"/>

  <!-- Density altitude lines -->
  <path d="M 90 317.21 L 93.36 318.39 L 96.71 319.57 L 100.07 320.75 L 103.43 321.94 L 106.79 323.12 L 110.14 324.3 L 113.5 325.49 L 116.86 326.67 L 120.21 327.85 L 123.57 329.03 L 126.93 330.22 L 130.29 331.4 L 133.64 332.58 L 137 333.77 L 140.36 334.95 L 143.71 336.13 L 147.07 337.31 L 150.43 338.5 L 153.79 339.68 L 157.14 340.86 L 160.5 342.04 L 163.86 343.23 L 167.21 344.41 L 170.57 345.59 L 173.93 346.78 L 177.29 347.96 L 180.64 349.14 L 184 350.32 L 187.36 351.51 L 190.71 352.69 L 194.07 353.87 L 197.43 355.06 L 200.79 356.24 L 204.14 357.42 L 207.5 358.6 L 210.86 359.79 L 214.21 360.97 L 217.57 362.15 L 220.93 363.33 L 224.29 364.52 L 227.64 365.7 L 231 366.88 L 234.36 368.07 L 237.71 369.25 L 241.07 370.43 L 244.43 371.61 L 247.79 372.8 L 251.14 373.98 L 254.5 375.16 L 257.86 376.34 L 261.21 377.53 L 264.57 378.71 L 267.93 379.89 L 271.29 381.08 L 274.64 382.26 L 278 383.44 L 281.36 384.62 L 284.71 385.81 L 288.07 386.99 L 291.43 388.17 L 294.79 389.36 L 298.14 390.54 L 301.5 391.72 L 304.86 392.9 L 308.21 394.09 L 311.57 395.27 L 314.93 396.45 L 318.29 397.63 L 321.64 398.82 L 325 400" fill="none" stroke="#0ea5e9" stroke-width="1.6"/>
  <path d="M 90 277.38 L 93.36 278.57 L 96.71 279.75 L 100.07 280.93 L 103.43 282.11 L 106.79 283.3 L 110.14 284.48 L 113.5 285.66 L 116.86 286.85 L 120.21 288.03 L 123.57 289.21 L 126.93 290.39 L 130.29 291.58 L 133.64 292.76 L 137 293.94 L 140.36 295.12 L 143.71 296.31 L 147.07 297.49 L 150.43 298.67 L 153.79 299.86 L 157.14 301.04 L 160.5 302.22 L 163.86 303.4 L 167.21 304.59 L 170.57 305.77 L 173.93 306.95 L 177.29 308.13 L 180.64 309.32 L 184 310.5 L 187.36 311.68 L 190.71 312.87 L 194.07 314.05 L 197.43 315.23 L 200.79 316.41 L 204.14 317.6 L 207.5 318.78 L 210.86 319.96 L 214.21 321.15 L 217.57 322.33 L 220.93 323.51 L 224.29 324.69 L 227.64 325.88 L 231 327.06 L 234.36 328.24 L 237.71 329.42 L 241.07 330.61 L 244.43 331.79 L 247.79 332.97 L 251.14 334.16 L 254.5 335.34 L 257.86 336.52 L 261.21 337.7 L 264.57 338.89 L 267.93 340.07 L 271.29 341.25 L 274.64 342.43 L 278 343.62 L 281.36 344.8 L 284.71 345.98 L 288.07 347.17 L 291.43 348.35 L 294.79 349.53 L 298.14 350.71 L 301.5 351.9 L 304.86 353.08 L 308.21 354.26 L 311.57 355.45 L 314.93 356.63 L 318.29 357.81 L 321.64 358.99 L 325 360.18 L 328.36 361.36 L 331.71 362.54 L 335.07 363.72 L 338.43 364.91 L 341.79 366.09 L 345.14 367.27 L 348.5 368.46 L 351.86 369.64 L 355.21 370.82 L 358.57 372 L 361.93 373.19 L 365.29 374.37 L 368.64 375.55 L 372 376.74 L 375.36 377.92 L 378.71 379.1 L 382.07 380.28 L 385.43 381.47 L 388.79 382.65 L 392.14 383.83 L 395.5 385.01 L 398.86 386.2 L 402.21 387.38 L 405.57 388.56 L 408.93 389.75 L 412.29 390.93 L 415.64 392.11 L 419 393.29 L 422.36 394.48 L 425.71 395.66 L 429.07 396.84 L 432.43 398.02 L 435.79 399.21" fill="none" stroke="#0ea5e9" stroke-width="1.6"/>
  <path d="M 90 237.56 L 93.36 238.74 L 96.71 239.92 L 100.07 241.11 L 103.43 242.29 L 106.79 243.47 L 110.14 244.66 L 113.5 245.84 L 116.86 247.02 L 120.21 248.2 L 123.57 249.39 L 126.93 250.57 L 130.29 251.75 L 133.64 252.94 L 137 254.12 L 140.36 255.3 L 143.71 256.48 L 147.07 257.67 L 150.43 258.85 L 153.79 260.03 L 157.14 261.21 L 160.5 262.4 L 163.86 263.58 L 167.21 264.76 L 170.57 265.95 L 173.93 267.13 L 177.29 268.31 L 180.64 269.49 L 184 270.68 L 187.36 271.86 L 190.71 273.04 L 194.07 274.23 L 197.43 275.41 L 200.79 276.59 L 204.14 277.77 L 207.5 278.96 L 210.86 280.14 L 214.21 281.32 L 217.57 282.5 L 220.93 283.69 L 224.29 284.87 L 227.64 286.05 L 231 287.24 L 234.36 288.42 L 237.71 289.6 L 241.07 290.78 L 244.43 291.97 L 247.79 293.15 L 251.14 294.33 L 254.5 295.51 L 257.86 296.7 L 261.21 297.88 L 264.57 299.06 L 267.93 300.25 L 271.29 301.43 L 274.64 302.61 L 278 303.79 L 281.36 304.98 L 284.71 306.16 L 288.07 307.34 L 291.43 308.53 L 294.79 309.71 L 298.14 310.89 L 301.5 312.07 L 304.86 313.26 L 308.21 314.44 L 311.57 315.62 L 314.93 316.8 L 318.29 317.99 L 321.64 319.17 L 325 320.35 L 328.36 321.54 L 331.71 322.72 L 335.07 323.9 L 338.43 325.08 L 341.79 326.27 L 345.14 327.45 L 348.5 328.63 L 351.86 329.81 L 355.21 331 L 358.57 332.18 L 361.93 333.36 L 365.29 334.55 L 368.64 335.73 L 372 336.91 L 375.36 338.09 L 378.71 339.28 L 382.07 340.46 L 385.43 341.64 L 388.79 342.83 L 392.14 344.01 L 395.5 345.19 L 398.86 346.37 L 402.21 347.56 L 405.57 348.74 L 408.93 349.92 L 412.29 351.1 L 415.64 352.29 L 419 353.47 L 422.36 354.65 L 425.71 355.84 L 429.07 357.02 L 432.43 358.2 L 435.79 359.38 L 439.14 360.57 L 442.5 361.75 L 445.86 362.93 L 449.21 364.11 L 452.57 365.3 L 455.93 366.48 L 459.29 367.66 L 462.64 368.85 L 466 370.03 L 469.36 371.21 L 472.71 372.39 L 476.07 373.58 L 479.43 374.76 L 482.79 375.94 L 486.14 377.13 L 489.5 378.31 L 492.86 379.49 L 496.21 380.67 L 499.57 381.86 L 502.93 383.04 L 506.29 384.22 L 509.64 385.4 L 513 386.59 L 516.36 387.77 L 519.71 388.95 L 523.07 390.14 L 526.43 391.32 L 529.79 392.5 L 533.14 393.68 L 536.5 394.87 L 539.86 396.05 L 543.21 397.23 L 546.57 398.42 L 549.93 399.6" fill="none" stroke="#0ea5e9" stroke-width="1.6"/>
  <path d="M 90 197.74 L 93.36 198.92 L 96.71 200.1 L 100.07 201.28 L 103.43 202.47 L 106.79 203.65 L 110.14 204.83 L 113.5 206.02 L 116.86 207.2 L 120.21 208.38 L 123.57 209.56 L 126.93 210.75 L 130.29 211.93 L 133.64 213.11 L 137 214.29 L 140.36 215.48 L 143.71 216.66 L 147.07 217.84 L 150.43 219.03 L 153.79 220.21 L 157.14 221.39 L 160.5 222.57 L 163.86 223.76 L 167.21 224.94 L 170.57 226.12 L 173.93 227.3 L 177.29 228.49 L 180.64 229.67 L 184 230.85 L 187.36 232.04 L 190.71 233.22 L 194.07 234.4 L 197.43 235.58 L 200.79 236.77 L 204.14 237.95 L 207.5 239.13 L 210.86 240.32 L 214.21 241.5 L 217.57 242.68 L 220.93 243.86 L 224.29 245.05 L 227.64 246.23 L 231 247.41 L 234.36 248.59 L 237.71 249.78 L 241.07 250.96 L 244.43 252.14 L 247.79 253.33 L 251.14 254.51 L 254.5 255.69 L 257.86 256.87 L 261.21 258.06 L 264.57 259.24 L 267.93 260.42 L 271.29 261.6 L 274.64 262.79 L 278 263.97 L 281.36 265.15 L 284.71 266.34 L 288.07 267.52 L 291.43 268.7 L 294.79 269.88 L 298.14 271.07 L 301.5 272.25 L 304.86 273.43 L 308.21 274.62 L 311.57 275.8 L 314.93 276.98 L 318.29 278.16 L 321.64 279.35 L 325 280.53 L 328.36 281.71 L 331.71 282.89 L 335.07 284.08 L 338.43 285.26 L 341.79 286.44 L 345.14 287.63 L 348.5 288.81 L 351.86 289.99 L 355.21 291.17 L 358.57 292.36 L 361.93 293.54 L 365.29 294.72 L 368.64 295.91 L 372 297.09 L 375.36 298.27 L 378.71 299.45 L 382.07 300.64 L 385.43 301.82 L 388.79 303 L 392.14 304.18 L 395.5 305.37 L 398.86 306.55 L 402.21 307.73 L 405.57 308.92 L 408.93 310.1 L 412.29 311.28 L 415.64 312.46 L 419 313.65 L 422.36 314.83 L 425.71 316.01 L 429.07 317.19 L 432.43 318.38 L 435.79 319.56 L 439.14 320.74 L 442.5 321.93 L 445.86 323.11 L 449.21 324.29 L 452.57 325.47 L 455.93 326.66 L 459.29 327.84 L 462.64 329.02 L 466 330.21 L 469.36 331.39 L 472.71 332.57 L 476.07 333.75 L 479.43 334.94 L 482.79 336.12 L 486.14 337.3 L 489.5 338.48 L 492.86 339.67 L 496.21 340.85 L 499.57 342.03 L 502.93 343.22 L 506.29 344.4 L 509.64 345.58 L 513 346.76 L 516.36 347.95 L 519.71 349.13 L 523.07 350.31 L 526.43 351.49 L 529.79 352.68 L 533.14 353.86 L 536.5 355.04 L 539.86 356.23 L 543.21 357.41 L 546.57 358.59 L 549.93 359.77 L 553.29 360.96 L 556.64 362.14 L 560 363.32" fill="none" stroke="#0ea5e9" stroke-width="1.6"/>
  <path d="M 90 157.91 L 93.36 159.09 L 96.71 160.28 L 100.07 161.46 L 103.43 162.64 L 106.79 163.83 L 110.14 165.01 L 113.5 166.19 L 116.86 167.37 L 120.21 168.56 L 123.57 169.74 L 126.93 170.92 L 130.29 172.11 L 133.64 173.29 L 137 174.47 L 140.36 175.65 L 143.71 176.84 L 147.07 178.02 L 150.43 179.2 L 153.79 180.38 L 157.14 181.57 L 160.5 182.75 L 163.86 183.93 L 167.21 185.12 L 170.57 186.3 L 173.93 187.48 L 177.29 188.66 L 180.64 189.85 L 184 191.03 L 187.36 192.21 L 190.71 193.4 L 194.07 194.58 L 197.43 195.76 L 200.79 196.94 L 204.14 198.13 L 207.5 199.31 L 210.86 200.49 L 214.21 201.67 L 217.57 202.86 L 220.93 204.04 L 224.29 205.22 L 227.64 206.41 L 231 207.59 L 234.36 208.77 L 237.71 209.95 L 241.07 211.14 L 244.43 212.32 L 247.79 213.5 L 251.14 214.68 L 254.5 215.87 L 257.86 217.05 L 261.21 218.23 L 264.57 219.42 L 267.93 220.6 L 271.29 221.78 L 274.64 222.96 L 278 224.15 L 281.36 225.33 L 284.71 226.51 L 288.07 227.7 L 291.43 228.88 L 294.79 230.06 L 298.14 231.24 L 301.5 232.43 L 304.86 233.61 L 308.21 234.79 L 311.57 235.97 L 314.93 237.16 L 318.29 238.34 L 321.64 239.52 L 325 240.71 L 328.36 241.89 L 331.71 243.07 L 335.07 244.25 L 338.43 245.44 L 341.79 246.62 L 345.14 247.8 L 348.5 248.98 L 351.86 250.17 L 355.21 251.35 L 358.57 252.53 L 361.93 253.72 L 365.29 254.9 L 368.64 256.08 L 372 257.26 L 375.36 258.45 L 378.71 259.63 L 382.07 260.81 L 385.43 262 L 388.79 263.18 L 392.14 264.36 L 395.5 265.54 L 398.86 266.73 L 402.21 267.91 L 405.57 269.09 L 408.93 270.27 L 412.29 271.46 L 415.64 272.64 L 419 273.82 L 422.36 275.01 L 425.71 276.19 L 429.07 277.37 L 432.43 278.55 L 435.79 279.74 L 439.14 280.92 L 442.5 282.1 L 445.86 283.28 L 449.21 284.47 L 452.57 285.65 L 455.93 286.83 L 459.29 288.02 L 462.64 289.2 L 466 290.38 L 469.36 291.56 L 472.71 292.75 L 476.07 293.93 L 479.43 295.11 L 482.79 296.3 L 486.14 297.48 L 489.5 298.66 L 492.86 299.84 L 496.21 301.03 L 499.57 302.21 L 502.93 303.39 L 506.29 304.57 L 509.64 305.76 L 513 306.94 L 516.36 308.12 L 519.71 309.31 L 523.07 310.49 L 526.43 311.67 L 529.79 312.85 L 533.14 314.04 L 536.5 315.22 L 539.86 316.4 L 543.21 317.59 L 546.57 318.77 L 549.93 319.95 L 553.29 321.13 L 556.64 322.32 L 560 323.5" fill="none" stroke="#0ea5e9" stroke-width="1.6"/>
  <path d="M 90 118.09 L 93.36 119.27 L 96.71 120.45 L 100.07 121.64 L 103.43 122.82 L 106.79 124 L 110.14 125.19 L 113.5 126.37 L 116.86 127.55 L 120.21 128.73 L 123.57 129.92 L 126.93 131.1 L 130.29 132.28 L 133.64 133.46 L 137 134.65 L 140.36 135.83 L 143.71 137.01 L 147.07 138.2 L 150.43 139.38 L 153.79 140.56 L 157.14 141.74 L 160.5 142.93 L 163.86 144.11 L 167.21 145.29 L 170.57 146.47 L 173.93 147.66 L 177.29 148.84 L 180.64 150.02 L 184 151.21 L 187.36 152.39 L 190.71 153.57 L 194.07 154.75 L 197.43 155.94 L 200.79 157.12 L 204.14 158.3 L 207.5 159.49 L 210.86 160.67 L 214.21 161.85 L 217.57 163.03 L 220.93 164.22 L 224.29 165.4 L 227.64 166.58 L 231 167.76 L 234.36 168.95 L 237.71 170.13 L 241.07 171.31 L 244.43 172.5 L 247.79 173.68 L 251.14 174.86 L 254.5 176.04 L 257.86 177.23 L 261.21 178.41 L 264.57 179.59 L 267.93 180.77 L 271.29 181.96 L 274.64 183.14 L 278 184.32 L 281.36 185.51 L 284.71 186.69 L 288.07 187.87 L 291.43 189.05 L 294.79 190.24 L 298.14 191.42 L 301.5 192.6 L 304.86 193.79 L 308.21 194.97 L 311.57 196.15 L 314.93 197.33 L 318.29 198.52 L 321.64 199.7 L 325 200.88 L 328.36 202.06 L 331.71 203.25 L 335.07 204.43 L 338.43 205.61 L 341.79 206.8 L 345.14 207.98 L 348.5 209.16 L 351.86 210.34 L 355.21 211.53 L 358.57 212.71 L 361.93 213.89 L 365.29 215.08 L 368.64 216.26 L 372 217.44 L 375.36 218.62 L 378.71 219.81 L 382.07 220.99 L 385.43 222.17 L 388.79 223.35 L 392.14 224.54 L 395.5 225.72 L 398.86 226.9 L 402.21 228.09 L 405.57 229.27 L 408.93 230.45 L 412.29 231.63 L 415.64 232.82 L 419 234 L 422.36 235.18 L 425.71 236.36 L 429.07 237.55 L 432.43 238.73 L 435.79 239.91 L 439.14 241.1 L 442.5 242.28 L 445.86 243.46 L 449.21 244.64 L 452.57 245.83 L 455.93 247.01 L 459.29 248.19 L 462.64 249.38 L 466 250.56 L 469.36 251.74 L 472.71 252.92 L 476.07 254.11 L 479.43 255.29 L 482.79 256.47 L 486.14 257.65 L 489.5 258.84 L 492.86 260.02 L 496.21 261.2 L 499.57 262.39 L 502.93 263.57 L 506.29 264.75 L 509.64 265.93 L 513 267.12 L 516.36 268.3 L 519.71 269.48 L 523.07 270.66 L 526.43 271.85 L 529.79 273.03 L 533.14 274.21 L 536.5 275.4 L 539.86 276.58 L 543.21 277.76 L 546.57 278.94 L 549.93 280.13 L 553.29 281.31 L 556.64 282.49 L 560 283.68" fill="none" stroke="#0ea5e9" stroke-width="1.6"/>
  <path d="M 90 78.26 L 93.36 79.45 L 96.71 80.63 L 100.07 81.81 L 103.43 83 L 106.79 84.18 L 110.14 85.36 L 113.5 86.54 L 116.86 87.73 L 120.21 88.91 L 123.57 90.09 L 126.93 91.28 L 130.29 92.46 L 133.64 93.64 L 137 94.82 L 140.36 96.01 L 143.71 97.19 L 147.07 98.37 L 150.43 99.55 L 153.79 100.74 L 157.14 101.92 L 160.5 103.1 L 163.86 104.29 L 167.21 105.47 L 170.57 106.65 L 173.93 107.83 L 177.29 109.02 L 180.64 110.2 L 184 111.38 L 187.36 112.57 L 190.71 113.75 L 194.07 114.93 L 197.43 116.11 L 200.79 117.3 L 204.14 118.48 L 207.5 119.66 L 210.86 120.84 L 214.21 122.03 L 217.57 123.21 L 220.93 124.39 L 224.29 125.58 L 227.64 126.76 L 231 127.94 L 234.36 129.12 L 237.71 130.31 L 241.07 131.49 L 244.43 132.67 L 247.79 133.85 L 251.14 135.04 L 254.5 136.22 L 257.86 137.4 L 261.21 138.59 L 264.57 139.77 L 267.93 140.95 L 271.29 142.13 L 274.64 143.32 L 278 144.5 L 281.36 145.68 L 284.71 146.87 L 288.07 148.05 L 291.43 149.23 L 294.79 150.41 L 298.14 151.6 L 301.5 152.78 L 304.86 153.96 L 308.21 155.14 L 311.57 156.33 L 314.93 157.51 L 318.29 158.69 L 321.64 159.88 L 325 161.06 L 328.36 162.24 L 331.71 163.42 L 335.07 164.61 L 338.43 165.79 L 341.79 166.97 L 345.14 168.15 L 348.5 169.34 L 351.86 170.52 L 355.21 171.7 L 358.57 172.89 L 361.93 174.07 L 365.29 175.25 L 368.64 176.43 L 372 177.62 L 375.36 178.8 L 378.71 179.98 L 382.07 181.17 L 385.43 182.35 L 388.79 183.53 L 392.14 184.71 L 395.5 185.9 L 398.86 187.08 L 402.21 188.26 L 405.57 189.44 L 408.93 190.63 L 412.29 191.81 L 415.64 192.99 L 419 194.18 L 422.36 195.36 L 425.71 196.54 L 429.07 197.72 L 432.43 198.91 L 435.79 200.09 L 439.14 201.27 L 442.5 202.45 L 445.86 203.64 L 449.21 204.82 L 452.57 206 L 455.93 207.19 L 459.29 208.37 L 462.64 209.55 L 466 210.73 L 469.36 211.92 L 472.71 213.1 L 476.07 214.28 L 479.43 215.47 L 482.79 216.65 L 486.14 217.83 L 489.5 219.01 L 492.86 220.2 L 496.21 221.38 L 499.57 222.56 L 502.93 223.74 L 506.29 224.93 L 509.64 226.11 L 513 227.29 L 516.36 228.48 L 519.71 229.66 L 523.07 230.84 L 526.43 232.02 L 529.79 233.21 L 533.14 234.39 L 536.5 235.57 L 539.86 236.76 L 543.21 237.94 L 546.57 239.12 L 549.93 240.3 L 553.29 241.49 L 556.64 242.67 L 560 243.85" fill="none" stroke="#0ea5e9" stroke-width="1.6"/>

  <!-- DA line labels (one per line, at its exit) -->
  <g><rect x="309" y="383" width="32" height="13" rx="2" fill="white" opacity="0.85"/><text x="325" y="393" text-anchor="middle" font-size="9" font-weight="bold" fill="#0284c7">0</text></g>
  <g><rect x="419.79" y="383" width="32" height="13" rx="2" fill="white" opacity="0.85"/><text x="435.79" y="393" text-anchor="middle" font-size="9" font-weight="bold" fill="#0284c7">2,000</text></g>
  <g><rect x="528" y="383" width="32" height="13" rx="2" fill="white" opacity="0.85"/><text x="544" y="393" text-anchor="middle" font-size="9" font-weight="bold" fill="#0284c7">4,000</text></g>
  <text x="566" y="366.32" font-size="9" font-weight="bold" fill="#0284c7">6,000</text>
  <text x="566" y="326.5" font-size="9" font-weight="bold" fill="#0284c7">8,000</text>
  <text x="566" y="286.68" font-size="9" font-weight="bold" fill="#0284c7">10,000</text>
  <text x="566" y="246.85" font-size="9" font-weight="bold" fill="#0284c7">12,000</text>

  <!-- Axis labels -->
  <text x="82" y="403" text-anchor="end" font-size="9" fill="#334155">0</text>
  <text x="82" y="353.71" text-anchor="end" font-size="9" fill="#334155">2,000</text>
  <text x="82" y="304.43" text-anchor="end" font-size="9" fill="#334155">4,000</text>
  <text x="82" y="255.14" text-anchor="end" font-size="9" fill="#334155">6,000</text>
  <text x="82" y="205.86" text-anchor="end" font-size="9" fill="#334155">8,000</text>
  <text x="82" y="156.57" text-anchor="end" font-size="9" fill="#334155">10,000</text>
  <text x="82" y="107.29" text-anchor="end" font-size="9" fill="#334155">12,000</text>
  <text x="82" y="58" text-anchor="end" font-size="9" fill="#334155">14,000</text>
  <text x="90" y="415" text-anchor="middle" font-size="9" fill="#334155">-20</text>
  <text x="157.14" y="415" text-anchor="middle" font-size="9" fill="#334155">-10</text>
  <text x="224.29" y="415" text-anchor="middle" font-size="9" fill="#334155">0</text>
  <text x="291.43" y="415" text-anchor="middle" font-size="9" fill="#334155">+10</text>
  <text x="358.57" y="415" text-anchor="middle" font-size="9" fill="#334155">+20</text>
  <text x="425.71" y="415" text-anchor="middle" font-size="9" fill="#334155">+30</text>
  <text x="492.86" y="415" text-anchor="middle" font-size="9" fill="#334155">+40</text>
  <text x="560" y="415" text-anchor="middle" font-size="9" fill="#334155">+50</text>
  <text x="90" y="428" text-anchor="middle" font-size="8" fill="#64748b">(-4°F)</text>
  <text x="157.14" y="428" text-anchor="middle" font-size="8" fill="#64748b">(14°F)</text>
  <text x="224.29" y="428" text-anchor="middle" font-size="8" fill="#64748b">(32°F)</text>
  <text x="291.43" y="428" text-anchor="middle" font-size="8" fill="#64748b">(50°F)</text>
  <text x="358.57" y="428" text-anchor="middle" font-size="8" fill="#64748b">(68°F)</text>
  <text x="425.71" y="428" text-anchor="middle" font-size="8" fill="#64748b">(86°F)</text>
  <text x="492.86" y="428" text-anchor="middle" font-size="8" fill="#64748b">(104°F)</text>
  <text x="560" y="428" text-anchor="middle" font-size="8" fill="#64748b">(122°F)</text>
  <text x="325" y="448" text-anchor="middle" font-size="11" font-weight="bold" fill="#1e293b">Outside Air Temperature (°C / °F)</text>
  <text x="18" y="230" text-anchor="middle" font-size="11" font-weight="bold" fill="#1e293b" transform="rotate(-90,18,230)">Pressure Altitude (feet)</text>

  <!-- Reference point A (red): PA 4,000 ft, OAT +30°C -->
  <line x1="425.71" y1="301.43" x2="425.71" y2="400" stroke="#ef4444" stroke-width="1" stroke-dasharray="4,3"/>
  <line x1="90" y1="301.43" x2="425.71" y2="301.43" stroke="#ef4444" stroke-width="1" stroke-dasharray="4,3"/>
  <circle cx="425.71" cy="301.43" r="4.5" fill="#ef4444" stroke="white" stroke-width="1"/>
  <text x="433.71" y="295.43" font-size="9" font-weight="bold" fill="#dc2626">A</text>

  <!-- Reference point B (purple): PA 8,000 ft, OAT +10°C -->
  <line x1="291.43" y1="202.86" x2="291.43" y2="400" stroke="#7c3aed" stroke-width="1" stroke-dasharray="4,3"/>
  <line x1="90" y1="202.86" x2="291.43" y2="202.86" stroke="#7c3aed" stroke-width="1" stroke-dasharray="4,3"/>
  <circle cx="291.43" cy="202.86" r="4.5" fill="#7c3aed" stroke="white" stroke-width="1"/>
  <text x="299.43" y="196.86" font-size="9" font-weight="bold" fill="#7c3aed">B</text>

  <!-- Legend -->
  <rect x="96" y="60" width="210" height="46" fill="white" stroke="#cbd5e1" stroke-width="0.5" rx="3"/>
  <line x1="104" y1="74" x2="126" y2="74" stroke="#0ea5e9" stroke-width="1.6"/>
  <text x="132" y="77" font-size="8.5" fill="#334155">Density altitude line (ft)</text>
  <circle cx="115" cy="91" r="4" fill="#ef4444" stroke="white" stroke-width="1"/>
  <circle cx="128" cy="91" r="4" fill="#7c3aed" stroke="white" stroke-width="1"/>
  <text x="138" y="94" font-size="8.5" fill="#334155">Example points A &amp; B</text>

  <rect x="90" y="55" width="470" height="345" fill="none" stroke="#334155" stroke-width="1.5"/>
</svg>
