<svg viewBox="0 0 440 470" xmlns="http://www.w3.org/2000/svg" font-family="Arial, sans-serif">
  <rect width="440" height="470" fill="#f8f9fa"/>
  <text x="220" y="22" text-anchor="middle" font-size="13" font-weight="bold" fill="#1e293b">AIRSPEED INDICATOR</text>
  <text x="220" y="38" text-anchor="middle" font-size="10" fill="#475569">Figure 5 · Cessna 172 · Speeds in Knots (KIAS)</text>

  <g transform="translate(220, 240)">
    <circle cx="0" cy="0" r="155" fill="#0f172a"/>
    <circle cx="0" cy="0" r="150" fill="#334155"/>
    <circle cx="0" cy="0" r="144" fill="#0a0e14"/>

    <!-- Outer color arcs: green (Vs1-Vno) + yellow (Vno-Vne) -->
    <path d="M -102.27 68.34 A 123 123 0 0 1 35.71 -117.7 L 31.93 -105.26 A 110 110 0 0 0 -91.46 61.11 Z" fill="#16a34a"/>
    <path d="M 35.71 -117.7 A 123 123 0 0 1 121.36 -20.04 L 108.53 -17.92 A 110 110 0 0 0 31.93 -105.26 Z" fill="#eab308"/>
    <!-- Inner white arc: Vso-Vfe (flap operating range) -->
    <path d="M -53.5 92.66 A 107 107 0 0 1 -97.46 -44.16 L -86.53 -39.21 A 95 95 0 0 0 -47.5 82.27 Z" fill="#ffffff"/>
    <line x1="107.54" y1="-17.76" x2="127.28" y2="-21.01" stroke="#dc2626" stroke-width="5" stroke-linecap="round"/>

    <!-- Tick marks -->
    <line x1="-69.5" y1="120.38" x2="-62.5" y2="108.25" stroke="#e2e8f0" stroke-width="2.4" stroke-linecap="round"/>
    <line x1="-104.51" y1="91.65" x2="-99.24" y2="87.03" stroke="#e2e8f0" stroke-width="1.4" stroke-linecap="round"/>
    <line x1="-128.42" y1="53.19" x2="-115.48" y2="47.84" stroke="#e2e8f0" stroke-width="2.4" stroke-linecap="round"/>
    <line x1="-138.7" y1="9.09" x2="-131.72" y2="8.63" stroke="#e2e8f0" stroke-width="1.4" stroke-linecap="round"/>
    <line x1="-134.26" y1="-35.98" x2="-120.74" y2="-32.35" stroke="#e2e8f0" stroke-width="2.4" stroke-linecap="round"/>
    <line x1="-115.57" y1="-77.22" x2="-109.75" y2="-73.34" stroke="#e2e8f0" stroke-width="1.4" stroke-linecap="round"/>
    <line x1="-84.62" y1="-110.28" x2="-76.1" y2="-99.17" stroke="#e2e8f0" stroke-width="2.4" stroke-linecap="round"/>
    <line x1="-44.68" y1="-131.62" x2="-42.43" y2="-124.99" stroke="#e2e8f0" stroke-width="1.4" stroke-linecap="round"/>
    <line x1="0" y1="-139" x2="0" y2="-125" stroke="#e2e8f0" stroke-width="2.4" stroke-linecap="round"/>
    <line x1="44.68" y1="-131.62" x2="42.43" y2="-124.99" stroke="#e2e8f0" stroke-width="1.4" stroke-linecap="round"/>
    <line x1="84.62" y1="-110.28" x2="76.1" y2="-99.17" stroke="#e2e8f0" stroke-width="2.4" stroke-linecap="round"/>
    <line x1="115.57" y1="-77.22" x2="109.75" y2="-73.34" stroke="#e2e8f0" stroke-width="1.4" stroke-linecap="round"/>
    <line x1="134.26" y1="-35.98" x2="120.74" y2="-32.35" stroke="#e2e8f0" stroke-width="2.4" stroke-linecap="round"/>
    <line x1="138.7" y1="9.09" x2="131.72" y2="8.63" stroke="#e2e8f0" stroke-width="1.4" stroke-linecap="round"/>
    <line x1="128.42" y1="53.19" x2="115.48" y2="47.84" stroke="#e2e8f0" stroke-width="2.4" stroke-linecap="round"/>
    <line x1="104.51" y1="91.65" x2="99.24" y2="87.03" stroke="#e2e8f0" stroke-width="1.4" stroke-linecap="round"/>
    <line x1="69.5" y1="120.38" x2="62.5" y2="108.25" stroke="#e2e8f0" stroke-width="2.4" stroke-linecap="round"/>

    <!-- Speed labels -->
    <text x="-40" y="73.83" text-anchor="middle" font-size="13" font-weight="bold" fill="white">40</text>
    <text x="-73.91" y="35.16" text-anchor="middle" font-size="13" font-weight="bold" fill="white">60</text>
    <text x="-77.27" y="-16.16" text-anchor="middle" font-size="13" font-weight="bold" fill="white">80</text>
    <text x="-48.7" y="-58.22" text-anchor="middle" font-size="15" font-weight="bold" fill="white">100</text>
    <text x="0" y="-75.45" text-anchor="middle" font-size="13" font-weight="bold" fill="white">120</text>
    <text x="48.7" y="-58.92" text-anchor="middle" font-size="13" font-weight="bold" fill="white">140</text>
    <text x="77.27" y="-16.16" text-anchor="middle" font-size="13" font-weight="bold" fill="white">160</text>
    <text x="73.91" y="35.16" text-anchor="middle" font-size="13" font-weight="bold" fill="white">180</text>
    <text x="40" y="73.83" text-anchor="middle" font-size="13" font-weight="bold" fill="white">200</text>

    <!-- Center caption -->
    <text x="0" y="50" text-anchor="middle" font-size="11" letter-spacing="1.5" fill="#64748b">AIRSPEED</text>
    <text x="0" y="64" text-anchor="middle" font-size="8.5" letter-spacing="2" fill="#64748b">KNOTS</text>

    <!-- Needle pointing to 100 kts -->
    <polygon points="-70.62,-92.03 -13.9,-27.15 21.44,21.37 15.09,26.24 -22.63,-20.45" fill="#e2e8f0" stroke="#0f172a" stroke-width="0.6"/>
    <circle cx="0" cy="0" r="10" fill="#475569"/>
    <circle cx="0" cy="0" r="5" fill="#94a3b8"/>
  </g>

  <!-- Legend -->
  <rect x="20" y="404" width="400" height="58" fill="#f1f5f9" stroke="#cbd5e1" stroke-width="1" rx="6"/>
  <rect x="32" y="416" width="20" height="11" fill="white" stroke="#94a3b8" stroke-width="0.8"/>
  <text x="58" y="425" font-size="9" fill="#334155">White: Vso–Vfe (40–85) — Flap operating range</text>
  <rect x="32" y="433" width="20" height="11" fill="#16a34a"/>
  <text x="58" y="442" font-size="9" fill="#334155">Green: Vs1–Vno (54–129) — Normal operating range</text>
  <rect x="32" y="450" width="20" height="11" fill="#eab308"/>
  <text x="58" y="459" font-size="9" fill="#334155">Yellow: Vno–Vne (129–163) — Caution range</text>
  <line x1="238" y1="439" x2="258" y2="439" stroke="#dc2626" stroke-width="4" stroke-linecap="round"/>
  <text x="264" y="442" font-size="9" fill="#334155">Red: Vne (163) — Never exceed</text>
</svg>
